<svg xmlns="http://www.w3.org/2000/svg" viewBox="0 0 100 100">
  <!-- Right petal (back layer) -->
  <path d="M50 92 C55 75, 68 65, 78 48 C86 34, 82 12, 66 10 C58 9, 52 18, 50 28 C56 18, 66 18, 70 30 C74 44, 66 62, 50 92 Z" fill="#D95F0A"/>
  <!-- Left petal (front layer) -->
  <path d="M50 92 C45 75, 32 65, 22 48 C14 34, 18 12, 34 10 C42 9, 48 18, 50 28 C44 18, 34 18, 30 30 C26 44, 34 62, 50 92 Z" fill="#F07823"/>
  <!-- Left petal inner highlight -->
  <path d="M34 12 C28 24, 27 44, 34 62 C29 48, 30 28, 36 16 Z" fill="#FBAA5A" opacity="0.55"/>
  <!-- Right petal inner highlight -->
  <path d="M66 12 C72 24, 73 44, 66 62 C71 48, 70 28, 64 16 Z" fill="#FBAA5A" opacity="0.4"/>
</svg>
